<svg id="drawing" xmlns="http://www.w3.org/2000/svg" version="1.1" xmlns:xlink="http://www.w3.org/1999/xlink" xmlns:svgjs="http://svgjs.com/svgjs" width="618" height="397.5" viewBox="211 134.5 618 397.5"><defs id="SvgjsDefs1001"><marker id="SvgjsMarker1023" markerWidth="16.23606797749979" markerHeight="10.550836550532098" refX="-1" refY="3.8990363547948754" viewBox="-1 -1.3763819204711738 16.23606797749979 10.550836550532098" orient="auto" markerUnits="userSpaceOnUse"><path id="SvgjsPath1024" d="M12 3.8990363547948754L0 7.798072709589751V0Z " stroke="#323232" stroke-width="2" fill="#323232" transform="matrix(1,0,0,1,0,0)"></path></marker><marker id="SvgjsMarker1034" markerWidth="16.23606797749979" markerHeight="10.550836550532098" refX="-1" refY="3.8990363547948754" viewBox="-1 -1.3763819204711738 16.23606797749979 10.550836550532098" orient="auto" markerUnits="userSpaceOnUse"><path id="SvgjsPath1035" d="M12 3.8990363547948754L0 7.798072709589751V0Z " stroke="#323232" stroke-width="2" fill="#323232" transform="matrix(1,0,0,1,0,0)"></path></marker><marker id="SvgjsMarker1049" markerWidth="16.23606797749979" markerHeight="10.550836550532098" refX="-1" refY="3.8990363547948754" viewBox="-1 -1.3763819204711738 16.23606797749979 10.550836550532098" orient="auto" markerUnits="userSpaceOnUse"><path id="SvgjsPath1050" d="M12 3.8990363547948754L0 7.798072709589751V0Z " stroke="#323232" stroke-width="2" fill="#323232" transform="matrix(1,0,0,1,0,0)"></path></marker><marker id="SvgjsMarker1061" markerWidth="16.23606797749979" markerHeight="10.550836550532098" refX="-1" refY="3.8990363547948754" viewBox="-1 -1.3763819204711738 16.23606797749979 10.550836550532098" orient="auto" markerUnits="userSpaceOnUse"><path id="SvgjsPath1062" d="M12 3.8990363547948754L0 7.798072709589751V0Z " stroke="#323232" stroke-width="2" fill="#323232" transform="matrix(1,0,0,1,0,0)"></path></marker><marker id="SvgjsMarker1072" markerWidth="16.23606797749979" markerHeight="10.550836550532098" refX="-1" refY="3.8990363547948754" viewBox="-1 -1.3763819204711738 16.23606797749979 10.550836550532098" orient="auto" markerUnits="userSpaceOnUse"><path id="SvgjsPath1073" d="M12 3.8990363547948754L0 7.798072709589751V0Z " stroke="#323232" stroke-width="2" fill="#323232" transform="matrix(1,0,0,1,0,0)"></path></marker><marker id="SvgjsMarker1090" markerWidth="16.23606797749979" markerHeight="10.550836550532098" refX="-1" refY="3.8990363547948754" viewBox="-1 -1.3763819204711738 16.23606797749979 10.550836550532098" orient="auto" markerUnits="userSpaceOnUse"><path id="SvgjsPath1091" d="M12 3.8990363547948754L0 7.798072709589751V0Z " stroke="#323232" stroke-width="2" fill="#323232" transform="matrix(1,0,0,1,0,0)"></path></marker><marker id="SvgjsMarker1101" markerWidth="16.23606797749979" markerHeight="10.550836550532098" refX="-1" refY="3.8990363547948754" viewBox="-1 -1.3763819204711738 16.23606797749979 10.550836550532098" orient="auto" markerUnits="userSpaceOnUse"><path id="SvgjsPath1102" d="M12 3.8990363547948754L0 7.798072709589751V0Z " stroke="#323232" stroke-width="2" fill="#323232" transform="matrix(1,0,0,1,0,0)"></path></marker><marker id="SvgjsMarker1116" markerWidth="16.23606797749979" markerHeight="10.550836550532098" refX="-1" refY="3.8990363547948754" viewBox="-1 -1.3763819204711738 16.23606797749979 10.550836550532098" orient="auto" markerUnits="userSpaceOnUse"><path id="SvgjsPath1117" d="M12 3.8990363547948754L0 7.798072709589751V0Z " stroke="#323232" stroke-width="2" fill="#323232" transform="matrix(1,0,0,1,0,0)"></path></marker><marker id="SvgjsMarker1128" markerWidth="16.23606797749979" markerHeight="10.550836550532098" refX="-1" refY="3.8990363547948754" viewBox="-1 -1.3763819204711738 16.23606797749979 10.550836550532098" orient="auto" markerUnits="userSpaceOnUse"><path id="SvgjsPath1129" d="M12 3.8990363547948754L0 7.798072709589751V0Z " stroke="#323232" stroke-width="2" fill="#323232" transform="matrix(1,0,0,1,0,0)"></path></marker><marker id="SvgjsMarker1139" markerWidth="16.23606797749979" markerHeight="10.550836550532098" refX="-1" refY="3.8990363547948754" viewBox="-1 -1.3763819204711738 16.23606797749979 10.550836550532098" orient="auto" markerUnits="userSpaceOnUse"><path id="SvgjsPath1140" d="M12 3.8990363547948754L0 7.798072709589751V0Z " stroke="#323232" stroke-width="2" fill="#323232" transform="matrix(1,0,0,1,0,0)"></path></marker></defs><g id="SvgjsG1007"><path id="SvgjsPath1008" d="M211 134.5H829V532H211V134.5Z " fill-opacity="1" fill="#ffffff"></path><g id="SvgjsG1009"><g id="SvgjsG1010" transform="translate(231 253.375)" opacity="1"><path id="SvgjsPath1011" d="M0 0L93 0L93 156.25L0 156.25Z " stroke-dasharray="none" stroke="#323232" stroke-width="2" fill="#ffffff" opacity="1"></path></g><g id="SvgjsG1012" transform="translate(389 158)" opacity="1"><path id="SvgjsPath1013" d="M0 0L92 0L92 43L0 43Z " stroke-dasharray="none" stroke="#323232" stroke-width="2" fill="#ffffff" opacity="1"></path><g id="SvgjsG1014" transform="matrix(1 0 0 1 10 13.375)" fill="#ffffff"><text id="SvgjsText1015" font-family="微软雅黑,黑体,Arial,SimSun" fill="#000000" font-size="13" font-weight="normal" font-style="normal" text-anchor="middle" text-decoration="blink" x="36" y="14">明文字串</text></g></g><g id="SvgjsG1016" transform="translate(389 234)" opacity="1"><path id="SvgjsPath1017" d="M0 0L92 0L92 43L0 43Z " stroke-dasharray="none" stroke="#323232" stroke-width="2" fill="#ffffff" opacity="1"></path><g id="SvgjsG1018" transform="matrix(1 0 0 1 10 5.25)" fill="#ffffff"><text id="SvgjsText1019" font-family="微软雅黑,黑体,Arial,SimSun" fill="#000000" font-size="13" font-weight="normal" font-style="normal" text-anchor="middle" text-decoration="blink" x="36" y="14">字串编码列</text><text id="SvgjsText1020" font-family="微软雅黑,黑体,Arial,SimSun" fill="#000000" font-size="13" font-weight="normal" font-style="normal" text-anchor="middle" text-decoration="blink" x="36" y="30.25">表</text></g></g><g id="SvgjsG1021"><path id="SvgjsPath1022" d="M435 201L435 217.5L435 217.5L435 218.7639320225002 " stroke-dasharray="none" stroke="#323232" stroke-width="2" fill="none" marker-end="url(#SvgjsMarker1023)"></path><g id="SvgjsG1025" transform="matrix(1 0 0 1 435 201.75696601125009)"><path id="SvgjsPath1026" d="M0 0H0V0H0V0Z " fill="#ffffff" transform="translate(0 0)"></path><text id="SvgjsText1027" font-family="Microsoft Yahei,SimSun" fill="#000000" font-size="13" font-weight="normal" font-style="normal" text-anchor="middle" text-decoration="blink" x="0" y="0"></text></g></g><g id="SvgjsG1028" transform="translate(372 311)" opacity="1"><path id="SvgjsPath1029" d="M13.666666666666666 0L112.33333333333333 0C130.55555555555554 0 130.55555555555554 41 112.33333333333333 41L13.666666666666666 41C-4.555555555555555 41 -4.555555555555555 0 13.666666666666666 0Z " stroke-dasharray="none" stroke="#323232" stroke-width="2" fill="#ffffff" opacity="1"></path><g id="SvgjsG1030" transform="matrix(1 0 0 1 10 12.375)" fill="#ffffff"><text id="SvgjsText1031" font-family="微软雅黑,黑体,Arial,SimSun" fill="#000000" font-size="13" font-weight="normal" font-style="normal" text-anchor="middle" text-decoration="blink" x="53" y="14">RSA加密</text></g></g><g id="SvgjsG1032"><path id="SvgjsPath1033" d="M435 277L435 294L435 294L435 295.7639320225002 " stroke-dasharray="none" stroke="#323232" stroke-width="2" fill="none" marker-end="url(#SvgjsMarker1034)"></path><g id="SvgjsG1036" transform="matrix(1 0 0 1 435 278.25696601125014)"><path id="SvgjsPath1037" d="M0 0H0V0H0V0Z " fill="#ffffff" transform="translate(0 0)"></path><text id="SvgjsText1038" font-family="Microsoft Yahei,SimSun" fill="#000000" font-size="13" font-weight="normal" font-style="normal" text-anchor="middle" text-decoration="blink" x="0" y="0"></text></g></g><g id="SvgjsG1039" transform="translate(241 348.5)" opacity="1"><path id="SvgjsPath1040" d="M0 0L73 0L73 34L0 34Z " stroke-dasharray="none" stroke="#323232" stroke-width="2" fill="#ffffff" opacity="1"></path><g id="SvgjsG1041" transform="matrix(1 0 0 1 10 8.875)" fill="#ffffff"><text id="SvgjsText1042" font-family="微软雅黑,黑体,Arial,SimSun" fill="#000000" font-size="13" font-weight="normal" font-style="normal" text-anchor="middle" text-decoration="blink" x="26.5" y="14">N</text></g></g><g id="SvgjsG1043" transform="translate(241 277)" opacity="1"><path id="SvgjsPath1044" d="M0 0L73 0L73 34L0 34Z " stroke-dasharray="none" stroke="#323232" stroke-width="2" fill="#ffffff" opacity="1"></path><g id="SvgjsG1045" transform="matrix(1 0 0 1 10 8.875)" fill="#ffffff"><text id="SvgjsText1046" font-family="微软雅黑,黑体,Arial,SimSun" fill="#000000" font-size="13" font-weight="normal" font-style="normal" text-anchor="middle" text-decoration="blink" x="26.5" y="14">E </text></g></g><g id="SvgjsG1047"><path id="SvgjsPath1048" d="M324 331.5L348 331.5L348 331.5L356.7639320225002 331.5 " stroke-dasharray="none" stroke="#323232" stroke-width="2" fill="none" marker-end="url(#SvgjsMarker1049)"></path><g id="SvgjsG1051" transform="matrix(1 0 0 1 340.38196601125014 323.375)"><path id="SvgjsPath1052" d="M0 0H0V0H0V0Z " fill="#ffffff" transform="translate(0 0)"></path><text id="SvgjsText1053" font-family="Microsoft Yahei,SimSun" fill="#000000" font-size="13" font-weight="normal" font-style="normal" text-anchor="middle" text-decoration="blink" x="0" y="0"></text></g></g><g id="SvgjsG1054" transform="translate(389 388)" opacity="1"><path id="SvgjsPath1055" d="M0 0L92 0L92 43L0 43Z " stroke-dasharray="none" stroke="#323232" stroke-width="2" fill="#ffffff" opacity="1"></path><g id="SvgjsG1056" transform="matrix(1 0 0 1 10 5.25)" fill="#ffffff"><text id="SvgjsText1057" font-family="微软雅黑,黑体,Arial,SimSun" fill="#000000" font-size="13" font-weight="normal" font-style="normal" text-anchor="middle" text-decoration="blink" x="36" y="14">加密后的字</text><text id="SvgjsText1058" font-family="微软雅黑,黑体,Arial,SimSun" fill="#000000" font-size="13" font-weight="normal" font-style="normal" text-anchor="middle" text-decoration="blink" x="36" y="30.25">串编码列表</text></g></g><g id="SvgjsG1059"><path id="SvgjsPath1060" d="M435 352L435 370L435 370L435 372.7639320225002 " stroke-dasharray="none" stroke="#323232" stroke-width="2" fill="none" marker-end="url(#SvgjsMarker1061)"></path><g id="SvgjsG1063" transform="matrix(1 0 0 1 435 354.25696601125014)"><path id="SvgjsPath1064" d="M0 0H0V0H0V0Z " fill="#ffffff" transform="translate(0 0)"></path><text id="SvgjsText1065" font-family="Microsoft Yahei,SimSun" fill="#000000" font-size="13" font-weight="normal" font-style="normal" text-anchor="middle" text-decoration="blink" x="0" y="0"></text></g></g><g id="SvgjsG1066" transform="translate(389 469)" opacity="1"><path id="SvgjsPath1067" d="M0 0L92 0L92 43L0 43Z " stroke-dasharray="none" stroke="#323232" stroke-width="2" fill="#ffffff" opacity="1"></path><g id="SvgjsG1068" transform="matrix(1 0 0 1 10 13.375)" fill="#ffffff"><text id="SvgjsText1069" font-family="微软雅黑,黑体,Arial,SimSun" fill="#000000" font-size="13" font-weight="normal" font-style="normal" text-anchor="middle" text-decoration="blink" x="36" y="14">密文字串</text></g></g><g id="SvgjsG1070"><path id="SvgjsPath1071" d="M435 431L435 450L435 450L435 453.7639320225002 " stroke-dasharray="none" stroke="#323232" stroke-width="2" fill="none" marker-end="url(#SvgjsMarker1072)"></path><g id="SvgjsG1074" transform="matrix(1 0 0 1 435 434.25696601125014)"><path id="SvgjsPath1075" d="M0 0H0V0H0V0Z " fill="#ffffff" transform="translate(0 0)"></path><text id="SvgjsText1076" font-family="Microsoft Yahei,SimSun" fill="#000000" font-size="13" font-weight="normal" font-style="normal" text-anchor="middle" text-decoration="blink" x="0" y="0"></text></g></g><g id="SvgjsG1077" transform="translate(716 249.875)" opacity="1"><path id="SvgjsPath1078" d="M0 0L93 0L93 156.25L0 156.25Z " stroke-dasharray="none" stroke="#323232" stroke-width="2" fill="#ffffff" opacity="1"></path></g><g id="SvgjsG1079" transform="translate(558 154.5)" opacity="1"><path id="SvgjsPath1080" d="M0 0L92 0L92 43L0 43Z " stroke-dasharray="none" stroke="#323232" stroke-width="2" fill="#ffffff" opacity="1"></path><g id="SvgjsG1081" transform="matrix(1 0 0 1 10 13.375)" fill="#ffffff"><text id="SvgjsText1082" font-family="微软雅黑,黑体,Arial,SimSun" fill="#000000" font-size="13" font-weight="normal" font-style="normal" text-anchor="middle" text-decoration="blink" x="36" y="14">密文字串</text></g></g><g id="SvgjsG1083" transform="translate(558 230.5)" opacity="1"><path id="SvgjsPath1084" d="M0 0L92 0L92 43L0 43Z " stroke-dasharray="none" stroke="#323232" stroke-width="2" fill="#ffffff" opacity="1"></path><g id="SvgjsG1085" transform="matrix(1 0 0 1 10 5.25)" fill="#ffffff"><text id="SvgjsText1086" font-family="微软雅黑,黑体,Arial,SimSun" fill="#000000" font-size="13" font-weight="normal" font-style="normal" text-anchor="middle" text-decoration="blink" x="36" y="14">字串编码列</text><text id="SvgjsText1087" font-family="微软雅黑,黑体,Arial,SimSun" fill="#000000" font-size="13" font-weight="normal" font-style="normal" text-anchor="middle" text-decoration="blink" x="36" y="30.25">表</text></g></g><g id="SvgjsG1088"><path id="SvgjsPath1089" d="M604 197.5L604 214L604 214L604 215.2639320225002 " stroke-dasharray="none" stroke="#323232" stroke-width="2" fill="none" marker-end="url(#SvgjsMarker1090)"></path><g id="SvgjsG1092" transform="matrix(1 0 0 1 604 198.25696601125009)"><path id="SvgjsPath1093" d="M0 0H0V0H0V0Z " fill="#ffffff" transform="translate(0 0)"></path><text id="SvgjsText1094" font-family="Microsoft Yahei,SimSun" fill="#000000" font-size="13" font-weight="normal" font-style="normal" text-anchor="middle" text-decoration="blink" x="0" y="0"></text></g></g><g id="SvgjsG1095" transform="translate(541 307.5)" opacity="1"><path id="SvgjsPath1096" d="M13.666666666666666 0L112.33333333333333 0C130.55555555555554 0 130.55555555555554 41 112.33333333333333 41L13.666666666666666 41C-4.555555555555555 41 -4.555555555555555 0 13.666666666666666 0Z " stroke-dasharray="none" stroke="#323232" stroke-width="2" fill="#ffffff" opacity="1"></path><g id="SvgjsG1097" transform="matrix(1 0 0 1 10 12.375)" fill="#ffffff"><text id="SvgjsText1098" font-family="微软雅黑,黑体,Arial,SimSun" fill="#000000" font-size="13" font-weight="normal" font-style="normal" text-anchor="middle" text-decoration="blink" x="53" y="14">RSA解密</text></g></g><g id="SvgjsG1099"><path id="SvgjsPath1100" d="M604 273.5L604 290.5L604 290.5L604 292.2639320225002 " stroke-dasharray="none" stroke="#323232" stroke-width="2" fill="none" marker-end="url(#SvgjsMarker1101)"></path><g id="SvgjsG1103" transform="matrix(1 0 0 1 604 274.75696601125014)"><path id="SvgjsPath1104" d="M0 0H0V0H0V0Z " fill="#ffffff" transform="translate(0 0)"></path><text id="SvgjsText1105" font-family="Microsoft Yahei,SimSun" fill="#000000" font-size="13" font-weight="normal" font-style="normal" text-anchor="middle" text-decoration="blink" x="0" y="0"></text></g></g><g id="SvgjsG1106" transform="translate(726 345)" opacity="1"><path id="SvgjsPath1107" d="M0 0L73 0L73 34L0 34Z " stroke-dasharray="none" stroke="#323232" stroke-width="2" fill="#ffffff" opacity="1"></path><g id="SvgjsG1108" transform="matrix(1 0 0 1 10 8.875)" fill="#ffffff"><text id="SvgjsText1109" font-family="微软雅黑,黑体,Arial,SimSun" fill="#000000" font-size="13" font-weight="normal" font-style="normal" text-anchor="middle" text-decoration="blink" x="26.5" y="14">N</text></g></g><g id="SvgjsG1110" transform="translate(726 273.5)" opacity="1"><path id="SvgjsPath1111" d="M0 0L73 0L73 34L0 34Z " stroke-dasharray="none" stroke="#323232" stroke-width="2" fill="#ffffff" opacity="1"></path><g id="SvgjsG1112" transform="matrix(1 0 0 1 10 8.875)" fill="#ffffff"><text id="SvgjsText1113" font-family="微软雅黑,黑体,Arial,SimSun" fill="#000000" font-size="13" font-weight="normal" font-style="normal" text-anchor="middle" text-decoration="blink" x="26.5" y="14">D</text></g></g><g id="SvgjsG1114"><path id="SvgjsPath1115" d="M716 328L691.5 328L691.5 328L682.2360679774998 328 " stroke-dasharray="none" stroke="#323232" stroke-width="2" fill="none" marker-end="url(#SvgjsMarker1116)"></path><g id="SvgjsG1118" transform="matrix(1 0 0 1 699.1180339887499 319.875)"><path id="SvgjsPath1119" d="M0 0H0V0H0V0Z " fill="#ffffff" transform="translate(0 0)"></path><text id="SvgjsText1120" font-family="Microsoft Yahei,SimSun" fill="#000000" font-size="13" font-weight="normal" font-style="normal" text-anchor="middle" text-decoration="blink" x="0" y="0"></text></g></g><g id="SvgjsG1121" transform="translate(558 384.5)" opacity="1"><path id="SvgjsPath1122" d="M0 0L92 0L92 43L0 43Z " stroke-dasharray="none" stroke="#323232" stroke-width="2" fill="#ffffff" opacity="1"></path><g id="SvgjsG1123" transform="matrix(1 0 0 1 10 5.25)" fill="#ffffff"><text id="SvgjsText1124" font-family="微软雅黑,黑体,Arial,SimSun" fill="#000000" font-size="13" font-weight="normal" font-style="normal" text-anchor="middle" text-decoration="blink" x="36" y="14">解密后的字</text><text id="SvgjsText1125" font-family="微软雅黑,黑体,Arial,SimSun" fill="#000000" font-size="13" font-weight="normal" font-style="normal" text-anchor="middle" text-decoration="blink" x="36" y="30.25">串编码列表</text></g></g><g id="SvgjsG1126"><path id="SvgjsPath1127" d="M604 348.5L604 366.5L604 366.5L604 369.2639320225002 " stroke-dasharray="none" stroke="#323232" stroke-width="2" fill="none" marker-end="url(#SvgjsMarker1128)"></path><g id="SvgjsG1130" transform="matrix(1 0 0 1 604 350.75696601125014)"><path id="SvgjsPath1131" d="M0 0H0V0H0V0Z " fill="#ffffff" transform="translate(0 0)"></path><text id="SvgjsText1132" font-family="Microsoft Yahei,SimSun" fill="#000000" font-size="13" font-weight="normal" font-style="normal" text-anchor="middle" text-decoration="blink" x="0" y="0"></text></g></g><g id="SvgjsG1133" transform="translate(558 465.5)" opacity="1"><path id="SvgjsPath1134" d="M0 0L92 0L92 43L0 43Z " stroke-dasharray="none" stroke="#323232" stroke-width="2" fill="#ffffff" opacity="1"></path><g id="SvgjsG1135" transform="matrix(1 0 0 1 10 13.375)" fill="#ffffff"><text id="SvgjsText1136" font-family="微软雅黑,黑体,Arial,SimSun" fill="#000000" font-size="13" font-weight="normal" font-style="normal" text-anchor="middle" text-decoration="blink" x="36" y="14">明文字串</text></g></g><g id="SvgjsG1137"><path id="SvgjsPath1138" d="M604 427.5L604 446.5L604 446.5L604 450.2639320225002 " stroke-dasharray="none" stroke="#323232" stroke-width="2" fill="none" marker-end="url(#SvgjsMarker1139)"></path><g id="SvgjsG1141" transform="matrix(1 0 0 1 604 430.75696601125014)"><path id="SvgjsPath1142" d="M0 0H0V0H0V0Z " fill="#ffffff" transform="translate(0 0)"></path><text id="SvgjsText1143" font-family="Microsoft Yahei,SimSun" fill="#000000" font-size="13" font-weight="normal" font-style="normal" text-anchor="middle" text-decoration="blink" x="0" y="0"></text></g></g></g></g></svg>