<svg id="drawing" xmlns="http://www.w3.org/2000/svg" version="1.1" xmlns:xlink="http://www.w3.org/1999/xlink" xmlns:svgjs="http://svgjs.com/svgjs" width="579" height="286" viewBox="161 305 579 286"><defs id="SvgjsDefs1001"><marker id="SvgjsMarker1034" markerWidth="16.23606797749979" markerHeight="10.550836550532098" refX="-1" refY="3.8990363547948754" viewBox="-1 -1.3763819204711738 16.23606797749979 10.550836550532098" orient="auto" markerUnits="userSpaceOnUse"><path id="SvgjsPath1035" d="M12 3.8990363547948754L0 7.798072709589751V0Z " stroke="#323232" stroke-width="2" fill="#323232" transform="matrix(1,0,0,1,0,0)"></path></marker><marker id="SvgjsMarker1041" markerWidth="16.23606797749979" markerHeight="10.550836550532098" refX="-1" refY="3.8990363547948754" viewBox="-1 -1.3763819204711738 16.23606797749979 10.550836550532098" orient="auto" markerUnits="userSpaceOnUse"><path id="SvgjsPath1042" d="M12 3.8990363547948754L0 7.798072709589751V0Z " stroke="#323232" stroke-width="2" fill="#323232" transform="matrix(1,0,0,1,0,0)"></path></marker><marker id="SvgjsMarker1048" markerWidth="16.23606797749979" markerHeight="10.550836550532098" refX="-1" refY="3.8990363547948754" viewBox="-1 -1.3763819204711738 16.23606797749979 10.550836550532098" orient="auto" markerUnits="userSpaceOnUse"><path id="SvgjsPath1049" d="M12 3.8990363547948754L0 7.798072709589751V0Z " stroke="#323232" stroke-width="2" fill="#323232" transform="matrix(1,0,0,1,0,0)"></path></marker><marker id="SvgjsMarker1077" markerWidth="16.23606797749979" markerHeight="10.550836550532098" refX="15.23606797749979" refY="3.8990363547948754" viewBox="-1 -1.3763819204711738 16.23606797749979 10.550836550532098" orient="auto" markerUnits="userSpaceOnUse"><path id="SvgjsPath1078" d="M12 3.8990363547948754L0 7.798072709589751V0Z " stroke="#323232" stroke-width="2" fill="#323232" transform="matrix(-1,1.2246467991473532e-16,-1.2246467991473532e-16,-1,14.23606797749979,7.79807270958975)"></path></marker><marker id="SvgjsMarker1084" markerWidth="16.23606797749979" markerHeight="10.550836550532098" refX="15.23606797749979" refY="3.8990363547948754" viewBox="-1 -1.3763819204711738 16.23606797749979 10.550836550532098" orient="auto" markerUnits="userSpaceOnUse"><path id="SvgjsPath1085" d="M12 3.8990363547948754L0 7.798072709589751V0Z " stroke="#323232" stroke-width="2" fill="#323232" transform="matrix(-1,1.2246467991473532e-16,-1.2246467991473532e-16,-1,14.23606797749979,7.79807270958975)"></path></marker><marker id="SvgjsMarker1091" markerWidth="16.23606797749979" markerHeight="10.550836550532098" refX="-1" refY="3.8990363547948754" viewBox="-1 -1.3763819204711738 16.23606797749979 10.550836550532098" orient="auto" markerUnits="userSpaceOnUse"><path id="SvgjsPath1092" d="M12 3.8990363547948754L0 7.798072709589751V0Z " stroke="#323232" stroke-width="2" fill="#323232" transform="matrix(1,0,0,1,0,0)"></path></marker></defs><g id="SvgjsG1007"><path id="SvgjsPath1008" d="M161 305H740V591H161V305Z " fill-opacity="1" fill="#ffffff"></path><g id="SvgjsG1009"><g id="SvgjsG1010" transform="translate(181 366)" opacity="1"><path id="SvgjsPath1011" d="M0 0L108 0L108 162L0 162Z " stroke-dasharray="none" stroke="#323232" stroke-width="2" fill="#ffffff" opacity="1"></path></g><g id="SvgjsG1012" transform="translate(205 395)" opacity="1"><path id="SvgjsPath1013" d="M0 0L66 0L66 38L0 38Z " stroke-dasharray="none" stroke="#323232" stroke-width="2" fill="#ffffff" opacity="1"></path><g id="SvgjsG1014" transform="matrix(1 0 0 1 10 10.875)" fill="#ffffff"><text id="SvgjsText1015" font-family="微软雅黑,黑体,Arial,SimSun" fill="#000000" font-size="13" font-weight="normal" font-style="normal" text-anchor="middle" text-decoration="blink" x="23" y="14">E</text></g></g><g id="SvgjsG1016" transform="translate(205 455)" opacity="1"><path id="SvgjsPath1017" d="M0 0L66 0L66 38L0 38Z " stroke-dasharray="none" stroke="#323232" stroke-width="2" fill="#ffffff" opacity="1"></path><g id="SvgjsG1018" transform="matrix(1 0 0 1 10 10.875)" fill="#ffffff"><text id="SvgjsText1019" font-family="微软雅黑,黑体,Arial,SimSun" fill="#000000" font-size="13" font-weight="normal" font-style="normal" text-anchor="middle" text-decoration="blink" x="23" y="14">N</text></g></g><g id="SvgjsG1020" transform="translate(326 424)" opacity="1"><path id="SvgjsPath1021" d="M15.333333333333334 0L84.66666666666667 0C105.11111111111111 0 105.11111111111111 46 84.66666666666667 46L15.333333333333334 46C-5.111111111111112 46 -5.111111111111112 0 15.333333333333334 0Z " stroke-dasharray="none" stroke="#323232" stroke-width="2" fill="#ffffff" opacity="1"></path><g id="SvgjsG1022" transform="matrix(1 0 0 1 10 14.875)" fill="#ffffff"><text id="SvgjsText1023" font-family="微软雅黑,黑体,Arial,SimSun" fill="#000000" font-size="13" font-weight="normal" font-style="normal" text-anchor="middle" text-decoration="blink" x="40" y="14">RSA加密</text></g></g><g id="SvgjsG1024" transform="translate(343 328)" opacity="1"><path id="SvgjsPath1025" d="M0 0L66 0L66 38L0 38Z " stroke-dasharray="none" stroke="#323232" stroke-width="2" fill="#ffffff" opacity="1"></path><g id="SvgjsG1026" transform="matrix(1 0 0 1 10 10.875)" fill="#ffffff"><text id="SvgjsText1027" font-family="微软雅黑,黑体,Arial,SimSun" fill="#000000" font-size="13" font-weight="normal" font-style="normal" text-anchor="middle" text-decoration="blink" x="23" y="14">明文</text></g></g><g id="SvgjsG1028" transform="translate(343 533)" opacity="1"><path id="SvgjsPath1029" d="M0 0L66 0L66 38L0 38Z " stroke-dasharray="none" stroke="#323232" stroke-width="2" fill="#ffffff" opacity="1"></path><g id="SvgjsG1030" transform="matrix(1 0 0 1 10 10.875)" fill="#ffffff"><text id="SvgjsText1031" font-family="微软雅黑,黑体,Arial,SimSun" fill="#000000" font-size="13" font-weight="normal" font-style="normal" text-anchor="middle" text-decoration="blink" x="23" y="14">密文</text></g></g><g id="SvgjsG1032"><path id="SvgjsPath1033" d="M376 366L376 395L376 395L376 408.7639320225002 " stroke-dasharray="none" stroke="#323232" stroke-width="2" fill="none" marker-end="url(#SvgjsMarker1034)"></path><g id="SvgjsG1036" transform="matrix(1 0 0 1 376 379.25696601125014)"><path id="SvgjsPath1037" d="M0 0H0V0H0V0Z " fill="#ffffff" transform="translate(0 0)"></path><text id="SvgjsText1038" font-family="Microsoft Yahei,SimSun" fill="#000000" font-size="13" font-weight="normal" font-style="normal" text-anchor="middle" text-decoration="blink" x="0" y="0"></text></g></g><g id="SvgjsG1039"><path id="SvgjsPath1040" d="M376 470L376 501.5L376 501.5L376 517.7639320225002 " stroke-dasharray="none" stroke="#323232" stroke-width="2" fill="none" marker-end="url(#SvgjsMarker1041)"></path><g id="SvgjsG1043" transform="matrix(1 0 0 1 376 485.7569660112501)"><path id="SvgjsPath1044" d="M0 0H0V0H0V0Z " fill="#ffffff" transform="translate(0 0)"></path><text id="SvgjsText1045" font-family="Microsoft Yahei,SimSun" fill="#000000" font-size="13" font-weight="normal" font-style="normal" text-anchor="middle" text-decoration="blink" x="0" y="0"></text></g></g><g id="SvgjsG1046"><path id="SvgjsPath1047" d="M289 447L307.5 447L307.5 447L310.7639320225002 447 " stroke-dasharray="none" stroke="#323232" stroke-width="2" fill="none" marker-end="url(#SvgjsMarker1048)"></path><g id="SvgjsG1050" transform="matrix(1 0 0 1 299.88196601125014 438.875)"><path id="SvgjsPath1051" d="M0 0H0V0H0V0Z " fill="#ffffff" transform="translate(0 0)"></path><text id="SvgjsText1052" font-family="Microsoft Yahei,SimSun" fill="#000000" font-size="13" font-weight="normal" font-style="normal" text-anchor="middle" text-decoration="blink" x="0" y="0"></text></g></g><g id="SvgjsG1053" transform="translate(612 363.5)" opacity="1"><path id="SvgjsPath1054" d="M0 0L108 0L108 162L0 162Z " stroke-dasharray="none" stroke="#323232" stroke-width="2" fill="#ffffff" opacity="1"></path></g><g id="SvgjsG1055" transform="translate(636 392.5)" opacity="1"><path id="SvgjsPath1056" d="M0 0L66 0L66 38L0 38Z " stroke-dasharray="none" stroke="#323232" stroke-width="2" fill="#ffffff" opacity="1"></path><g id="SvgjsG1057" transform="matrix(1 0 0 1 10 10.875)" fill="#ffffff"><text id="SvgjsText1058" font-family="微软雅黑,黑体,Arial,SimSun" fill="#000000" font-size="13" font-weight="normal" font-style="normal" text-anchor="middle" text-decoration="blink" x="23" y="14">D</text></g></g><g id="SvgjsG1059" transform="translate(636 452.5)" opacity="1"><path id="SvgjsPath1060" d="M0 0L66 0L66 38L0 38Z " stroke-dasharray="none" stroke="#323232" stroke-width="2" fill="#ffffff" opacity="1"></path><g id="SvgjsG1061" transform="matrix(1 0 0 1 10 10.875)" fill="#ffffff"><text id="SvgjsText1062" font-family="微软雅黑,黑体,Arial,SimSun" fill="#000000" font-size="13" font-weight="normal" font-style="normal" text-anchor="middle" text-decoration="blink" x="23" y="14">E</text></g></g><g id="SvgjsG1063" transform="translate(462 421.5)" opacity="1"><path id="SvgjsPath1064" d="M15.333333333333334 0L84.66666666666667 0C105.11111111111111 0 105.11111111111111 46 84.66666666666667 46L15.333333333333334 46C-5.111111111111112 46 -5.111111111111112 0 15.333333333333334 0Z " stroke-dasharray="none" stroke="#323232" stroke-width="2" fill="#ffffff" opacity="1"></path><g id="SvgjsG1065" transform="matrix(1 0 0 1 10 14.875)" fill="#ffffff"><text id="SvgjsText1066" font-family="微软雅黑,黑体,Arial,SimSun" fill="#000000" font-size="13" font-weight="normal" font-style="normal" text-anchor="middle" text-decoration="blink" x="40" y="14">RSA解密</text></g></g><g id="SvgjsG1067" transform="translate(479 328)" opacity="1"><path id="SvgjsPath1068" d="M0 0L66 0L66 38L0 38Z " stroke-dasharray="none" stroke="#323232" stroke-width="2" fill="#ffffff" opacity="1"></path><g id="SvgjsG1069" transform="matrix(1 0 0 1 10 10.875)" fill="#ffffff"><text id="SvgjsText1070" font-family="微软雅黑,黑体,Arial,SimSun" fill="#000000" font-size="13" font-weight="normal" font-style="normal" text-anchor="middle" text-decoration="blink" x="23" y="14">明文</text></g></g><g id="SvgjsG1071" transform="translate(479 533)" opacity="1"><path id="SvgjsPath1072" d="M0 0L66 0L66 38L0 38Z " stroke-dasharray="none" stroke="#323232" stroke-width="2" fill="#ffffff" opacity="1"></path><g id="SvgjsG1073" transform="matrix(1 0 0 1 10 10.875)" fill="#ffffff"><text id="SvgjsText1074" font-family="微软雅黑,黑体,Arial,SimSun" fill="#000000" font-size="13" font-weight="normal" font-style="normal" text-anchor="middle" text-decoration="blink" x="23" y="14">密文</text></g></g><g id="SvgjsG1075"><path id="SvgjsPath1076" d="M512 381.2360679774998L512 393.75L512 393.75L512 421.5 " stroke-dasharray="none" stroke="#323232" stroke-width="2" fill="none" marker-start="url(#SvgjsMarker1077)"></path><g id="SvgjsG1079" transform="matrix(1 0 0 1 512 393.24303398874986)"><path id="SvgjsPath1080" d="M0 0H0V0H0V0Z " fill="#ffffff" transform="translate(0 0)"></path><text id="SvgjsText1081" font-family="Microsoft Yahei,SimSun" fill="#000000" font-size="13" font-weight="normal" font-style="normal" text-anchor="middle" text-decoration="blink" x="0" y="0"></text></g></g><g id="SvgjsG1082"><path id="SvgjsPath1083" d="M512 482.7360679774998L512 500.25L512 500.25L512 533 " stroke-dasharray="none" stroke="#323232" stroke-width="2" fill="none" marker-start="url(#SvgjsMarker1084)"></path><g id="SvgjsG1086" transform="matrix(1 0 0 1 512 499.74303398874986)"><path id="SvgjsPath1087" d="M0 0H0V0H0V0Z " fill="#ffffff" transform="translate(0 0)"></path><text id="SvgjsText1088" font-family="Microsoft Yahei,SimSun" fill="#000000" font-size="13" font-weight="normal" font-style="normal" text-anchor="middle" text-decoration="blink" x="0" y="0"></text></g></g><g id="SvgjsG1089"><path id="SvgjsPath1090" d="M612 444.5L587 444.5L587 444.5L577.2360679774998 444.5 " stroke-dasharray="none" stroke="#323232" stroke-width="2" fill="none" marker-end="url(#SvgjsMarker1091)"></path><g id="SvgjsG1093" transform="matrix(1 0 0 1 594.6180339887499 436.375)"><path id="SvgjsPath1094" d="M0 0H0V0H0V0Z " fill="#ffffff" transform="translate(0 0)"></path><text id="SvgjsText1095" font-family="Microsoft Yahei,SimSun" fill="#000000" font-size="13" font-weight="normal" font-style="normal" text-anchor="middle" text-decoration="blink" x="0" y="0"></text></g></g><g id="SvgjsG1096" transform="translate(196 325)" opacity="1"><path id="SvgjsPath1097" d="M0 0L78 0L78 30L0 30Z " stroke-dasharray="none" stroke-width="0" stroke="#323232" fill="none" opacity="1"></path><g id="SvgjsG1098" transform="matrix(1 0 0 1 0 6.875)" fill="#ffffff"><text id="SvgjsText1099" font-family="微软雅黑,黑体,Arial,SimSun" fill="#000000" font-size="13" font-weight="normal" font-style="normal" text-anchor="middle" text-decoration="blink" x="39" y="14">公钥</text></g></g><g id="SvgjsG1100" transform="translate(630 325)" opacity="1"><path id="SvgjsPath1101" d="M0 0L78 0L78 30L0 30Z " stroke-dasharray="none" stroke-width="0" stroke="#323232" fill="none" opacity="1"></path><g id="SvgjsG1102" transform="matrix(1 0 0 1 0 6.875)" fill="#ffffff"><text id="SvgjsText1103" font-family="微软雅黑,黑体,Arial,SimSun" fill="#000000" font-size="13" font-weight="normal" font-style="normal" text-anchor="middle" text-decoration="blink" x="39" y="14">私钥</text></g></g></g></g></svg>