<svg id="drawing" xmlns="http://www.w3.org/2000/svg" version="1.1" xmlns:xlink="http://www.w3.org/1999/xlink" xmlns:svgjs="http://svgjs.com/svgjs" width="639" height="383" viewBox="185 137 639 383"><defs id="SvgjsDefs1001"><marker id="SvgjsMarker1040" markerWidth="16.23606797749979" markerHeight="10.550836550532098" refX="-1" refY="3.8990363547948754" viewBox="-1 -1.3763819204711738 16.23606797749979 10.550836550532098" orient="auto" markerUnits="userSpaceOnUse"><path id="SvgjsPath1041" d="M12 3.8990363547948754L0 7.798072709589751V0Z " stroke="#323232" stroke-width="2" fill="#323232" transform="matrix(1,0,0,1,0,0)"></path></marker><marker id="SvgjsMarker1047" markerWidth="16.23606797749979" markerHeight="10.550836550532098" refX="-1" refY="3.8990363547948754" viewBox="-1 -1.3763819204711738 16.23606797749979 10.550836550532098" orient="auto" markerUnits="userSpaceOnUse"><path id="SvgjsPath1048" d="M12 3.8990363547948754L0 7.798072709589751V0Z " stroke="#323232" stroke-width="2" fill="#323232" transform="matrix(1,0,0,1,0,0)"></path></marker><marker id="SvgjsMarker1054" markerWidth="16.23606797749979" markerHeight="10.550836550532098" refX="-1" refY="3.8990363547948754" viewBox="-1 -1.3763819204711738 16.23606797749979 10.550836550532098" orient="auto" markerUnits="userSpaceOnUse"><path id="SvgjsPath1055" d="M12 3.8990363547948754L0 7.798072709589751V0Z " stroke="#323232" stroke-width="2" fill="#323232" transform="matrix(1,0,0,1,0,0)"></path></marker><marker id="SvgjsMarker1061" markerWidth="16.23606797749979" markerHeight="10.550836550532098" refX="-1" refY="3.8990363547948754" viewBox="-1 -1.3763819204711738 16.23606797749979 10.550836550532098" orient="auto" markerUnits="userSpaceOnUse"><path id="SvgjsPath1062" d="M12 3.8990363547948754L0 7.798072709589751V0Z " stroke="#323232" stroke-width="2" fill="#323232" transform="matrix(1,0,0,1,0,0)"></path></marker><marker id="SvgjsMarker1076" markerWidth="16.23606797749979" markerHeight="10.550836550532098" refX="-1" refY="3.8990363547948754" viewBox="-1 -1.3763819204711738 16.23606797749979 10.550836550532098" orient="auto" markerUnits="userSpaceOnUse"><path id="SvgjsPath1077" d="M12 3.8990363547948754L0 7.798072709589751V0Z " stroke="#323232" stroke-width="2" fill="#323232" transform="matrix(1,0,0,1,0,0)"></path></marker><marker id="SvgjsMarker1083" markerWidth="16.23606797749979" markerHeight="10.550836550532098" refX="-1" refY="3.8990363547948754" viewBox="-1 -1.3763819204711738 16.23606797749979 10.550836550532098" orient="auto" markerUnits="userSpaceOnUse"><path id="SvgjsPath1084" d="M12 3.8990363547948754L0 7.798072709589751V0Z " stroke="#323232" stroke-width="2" fill="#323232" transform="matrix(1,0,0,1,0,0)"></path></marker><marker id="SvgjsMarker1090" markerWidth="16.23606797749979" markerHeight="10.550836550532098" refX="-1" refY="3.8990363547948754" viewBox="-1 -1.3763819204711738 16.23606797749979 10.550836550532098" orient="auto" markerUnits="userSpaceOnUse"><path id="SvgjsPath1091" d="M12 3.8990363547948754L0 7.798072709589751V0Z " stroke="#323232" stroke-width="2" fill="#323232" transform="matrix(1,0,0,1,0,0)"></path></marker><marker id="SvgjsMarker1097" markerWidth="16.23606797749979" markerHeight="10.550836550532098" refX="-1" refY="3.8990363547948754" viewBox="-1 -1.3763819204711738 16.23606797749979 10.550836550532098" orient="auto" markerUnits="userSpaceOnUse"><path id="SvgjsPath1098" d="M12 3.8990363547948754L0 7.798072709589751V0Z " stroke="#323232" stroke-width="2" fill="#323232" transform="matrix(1,0,0,1,0,0)"></path></marker></defs><g id="SvgjsG1007"><path id="SvgjsPath1008" d="M185 137H824V520H185V137Z " fill-opacity="1" fill="#ffffff"></path><g id="SvgjsG1009"><g id="SvgjsG1010" transform="translate(205 157)" opacity="1"><path id="SvgjsPath1011" d="M0 0L166 0L166 275L0 275Z " stroke-dasharray="none" stroke="#323232" stroke-width="2" fill="#ffffff" opacity="1"></path></g><g id="SvgjsG1012" transform="translate(248 194)" opacity="1"><path id="SvgjsPath1013" d="M0 0L80 0L80 36L0 36Z " stroke-dasharray="none" stroke="#323232" stroke-width="2" fill="#ffffff" opacity="1"></path><g id="SvgjsG1014" transform="matrix(1 0 0 1 10 9.875)" fill="#ffffff"><text id="SvgjsText1015" font-family="微软雅黑,黑体,Arial,SimSun" fill="#000000" font-size="13" font-weight="normal" font-style="normal" text-anchor="middle" text-decoration="blink" x="30" y="14">E</text></g></g><g id="SvgjsG1016" transform="translate(248 374)" opacity="1"><path id="SvgjsPath1017" d="M0 0L80 0L80 36L0 36Z " stroke-dasharray="none" stroke="#323232" stroke-width="2" fill="#ffffff" opacity="1"></path><g id="SvgjsG1018" transform="matrix(1 0 0 1 10 9.875)" fill="#ffffff"><text id="SvgjsText1019" font-family="微软雅黑,黑体,Arial,SimSun" fill="#000000" font-size="13" font-weight="normal" font-style="normal" text-anchor="middle" text-decoration="blink" x="30" y="14">N</text></g></g><g id="SvgjsG1020" transform="translate(638 157)" opacity="1"><path id="SvgjsPath1021" d="M0 0L166 0L166 275L0 275Z " stroke-dasharray="none" stroke="#323232" stroke-width="2" fill="#ffffff" opacity="1"></path></g><g id="SvgjsG1022" transform="translate(681 194)" opacity="1"><path id="SvgjsPath1023" d="M0 0L80 0L80 36L0 36Z " stroke-dasharray="none" stroke="#323232" stroke-width="2" fill="#ffffff" opacity="1"></path><g id="SvgjsG1024" transform="matrix(1 0 0 1 10 9.875)" fill="#ffffff"><text id="SvgjsText1025" font-family="微软雅黑,黑体,Arial,SimSun" fill="#000000" font-size="13" font-weight="normal" font-style="normal" text-anchor="middle" text-decoration="blink" x="30" y="14">D</text></g></g><g id="SvgjsG1026" transform="translate(681 374)" opacity="1"><path id="SvgjsPath1027" d="M0 0L80 0L80 36L0 36Z " stroke-dasharray="none" stroke="#323232" stroke-width="2" fill="#ffffff" opacity="1"></path><g id="SvgjsG1028" transform="matrix(1 0 0 1 10 9.875)" fill="#ffffff"><text id="SvgjsText1029" font-family="微软雅黑,黑体,Arial,SimSun" fill="#000000" font-size="13" font-weight="normal" font-style="normal" text-anchor="middle" text-decoration="blink" x="30" y="14">E</text></g></g><g id="SvgjsG1030" transform="translate(435 190.5)" opacity="1"><path id="SvgjsPath1031" d="M14.333333333333334 0L137.66666666666666 0C156.77777777777777 0 156.77777777777777 43 137.66666666666666 43L14.333333333333334 43C-4.777777777777778 43 -4.777777777777778 0 14.333333333333334 0Z " stroke-dasharray="none" stroke="#323232" stroke-width="2" fill="#ffffff" opacity="1"></path><g id="SvgjsG1032" transform="matrix(1 0 0 1 10 13.375)" fill="#ffffff"><text id="SvgjsText1033" font-family="微软雅黑,黑体,Arial,SimSun" fill="#000000" font-size="13" font-weight="normal" font-style="normal" text-anchor="middle" text-decoration="blink" x="66" y="14">E × D mod L = 1</text></g></g><g id="SvgjsG1034" transform="translate(435 370.5)" opacity="1"><path id="SvgjsPath1035" d="M14.333333333333334 0L137.66666666666666 0C156.77777777777777 0 156.77777777777777 43 137.66666666666666 43L14.333333333333334 43C-4.777777777777778 43 -4.777777777777778 0 14.333333333333334 0Z " stroke-dasharray="none" stroke="#323232" stroke-width="2" fill="#ffffff" opacity="1"></path><g id="SvgjsG1036" transform="matrix(1 0 0 1 10 13.375)" fill="#ffffff"><text id="SvgjsText1037" font-family="微软雅黑,黑体,Arial,SimSun" fill="#000000" font-size="13" font-weight="normal" font-style="normal" text-anchor="middle" text-decoration="blink" x="66" y="14">N = p × q</text></g></g><g id="SvgjsG1038"><path id="SvgjsPath1039" d="M328 212L381.5 212L381.5 212L419.7639320225002 212 " stroke-dasharray="none" stroke="#323232" stroke-width="2" fill="none" marker-end="url(#SvgjsMarker1040)"></path><g id="SvgjsG1042" transform="matrix(1 0 0 1 373.88196601125014 203.875)"><path id="SvgjsPath1043" d="M0 0H0V0H0V0Z " fill="#ffffff" transform="translate(0 0)"></path><text id="SvgjsText1044" font-family="Microsoft Yahei,SimSun" fill="#000000" font-size="13" font-weight="normal" font-style="normal" text-anchor="middle" text-decoration="blink" x="0" y="0"></text></g></g><g id="SvgjsG1045"><path id="SvgjsPath1046" d="M587 212L634 212L634 212L665.7639320225002 212 " stroke-dasharray="none" stroke="#323232" stroke-width="2" fill="none" marker-end="url(#SvgjsMarker1047)"></path><g id="SvgjsG1049" transform="matrix(1 0 0 1 626.3819660112501 203.875)"><path id="SvgjsPath1050" d="M0 0H0V0H0V0Z " fill="#ffffff" transform="translate(0 0)"></path><text id="SvgjsText1051" font-family="Microsoft Yahei,SimSun" fill="#000000" font-size="13" font-weight="normal" font-style="normal" text-anchor="middle" text-decoration="blink" x="0" y="0"></text></g></g><g id="SvgjsG1052"><path id="SvgjsPath1053" d="M435 392L381.5 392L381.5 392L343.2360679774998 392 " stroke-dasharray="none" stroke="#323232" stroke-width="2" fill="none" marker-end="url(#SvgjsMarker1054)"></path><g id="SvgjsG1056" transform="matrix(1 0 0 1 389.11803398874986 383.875)"><path id="SvgjsPath1057" d="M0 0H0V0H0V0Z " fill="#ffffff" transform="translate(0 0)"></path><text id="SvgjsText1058" font-family="Microsoft Yahei,SimSun" fill="#000000" font-size="13" font-weight="normal" font-style="normal" text-anchor="middle" text-decoration="blink" x="0" y="0"></text></g></g><g id="SvgjsG1059"><path id="SvgjsPath1060" d="M587 392L634 392L634 392L665.7639320225002 392 " stroke-dasharray="none" stroke="#323232" stroke-width="2" fill="none" marker-end="url(#SvgjsMarker1061)"></path><g id="SvgjsG1063" transform="matrix(1 0 0 1 626.3819660112501 383.875)"><path id="SvgjsPath1064" d="M0 0H0V0H0V0Z " fill="#ffffff" transform="translate(0 0)"></path><text id="SvgjsText1065" font-family="Microsoft Yahei,SimSun" fill="#000000" font-size="13" font-weight="normal" font-style="normal" text-anchor="middle" text-decoration="blink" x="0" y="0"></text></g></g><g id="SvgjsG1066" transform="translate(435 287)" opacity="1"><path id="SvgjsPath1067" d="M0 0L66 0L66 26L0 26Z " stroke-dasharray="none" stroke="#323232" stroke-width="2" fill="#ffffff" opacity="1"></path><g id="SvgjsG1068" transform="matrix(1 0 0 1 10 4.875)" fill="#ffffff"><text id="SvgjsText1069" font-family="微软雅黑,黑体,Arial,SimSun" fill="#000000" font-size="13" font-weight="normal" font-style="normal" text-anchor="middle" text-decoration="blink" x="23" y="14">质数p</text></g></g><g id="SvgjsG1070" transform="translate(515 287)" opacity="1"><path id="SvgjsPath1071" d="M0 0L66 0L66 26L0 26Z " stroke-dasharray="none" stroke="#323232" stroke-width="2" fill="#ffffff" opacity="1"></path><g id="SvgjsG1072" transform="matrix(1 0 0 1 10 4.875)" fill="#ffffff"><text id="SvgjsText1073" font-family="微软雅黑,黑体,Arial,SimSun" fill="#000000" font-size="13" font-weight="normal" font-style="normal" text-anchor="middle" text-decoration="blink" x="23" y="14">质数q</text></g></g><g id="SvgjsG1074"><path id="SvgjsPath1075" d="M468 287L468 260L468 260L468 248.2360679774998 " stroke-dasharray="none" stroke="#323232" stroke-width="2" fill="none" marker-end="url(#SvgjsMarker1076)"></path><g id="SvgjsG1078" transform="matrix(1 0 0 1 468 259.4930339887499)"><path id="SvgjsPath1079" d="M0 0H0V0H0V0Z " fill="#ffffff" transform="translate(0 0)"></path><text id="SvgjsText1080" font-family="Microsoft Yahei,SimSun" fill="#000000" font-size="13" font-weight="normal" font-style="normal" text-anchor="middle" text-decoration="blink" x="0" y="0"></text></g></g><g id="SvgjsG1081"><path id="SvgjsPath1082" d="M468 313L468 342L468 342L468 355.7639320225002 " stroke-dasharray="none" stroke="#323232" stroke-width="2" fill="none" marker-end="url(#SvgjsMarker1083)"></path><g id="SvgjsG1085" transform="matrix(1 0 0 1 468 326.25696601125014)"><path id="SvgjsPath1086" d="M0 0H0V0H0V0Z " fill="#ffffff" transform="translate(0 0)"></path><text id="SvgjsText1087" font-family="Microsoft Yahei,SimSun" fill="#000000" font-size="13" font-weight="normal" font-style="normal" text-anchor="middle" text-decoration="blink" x="0" y="0"></text></g></g><g id="SvgjsG1088"><path id="SvgjsPath1089" d="M548 287L548 260L548 260L548 248.2360679774998 " stroke-dasharray="none" stroke="#323232" stroke-width="2" fill="none" marker-end="url(#SvgjsMarker1090)"></path><g id="SvgjsG1092" transform="matrix(1 0 0 1 548 259.4930339887499)"><path id="SvgjsPath1093" d="M0 0H0V0H0V0Z " fill="#ffffff" transform="translate(0 0)"></path><text id="SvgjsText1094" font-family="Microsoft Yahei,SimSun" fill="#000000" font-size="13" font-weight="normal" font-style="normal" text-anchor="middle" text-decoration="blink" x="0" y="0"></text></g></g><g id="SvgjsG1095"><path id="SvgjsPath1096" d="M548 313L548 342L548 342L548 355.7639320225002 " stroke-dasharray="none" stroke="#323232" stroke-width="2" fill="none" marker-end="url(#SvgjsMarker1097)"></path><g id="SvgjsG1099" transform="matrix(1 0 0 1 548 326.25696601125014)"><path id="SvgjsPath1100" d="M0 0H0V0H0V0Z " fill="#ffffff" transform="translate(0 0)"></path><text id="SvgjsText1101" font-family="Microsoft Yahei,SimSun" fill="#000000" font-size="13" font-weight="normal" font-style="normal" text-anchor="middle" text-decoration="blink" x="0" y="0"></text></g></g><g id="SvgjsG1102" transform="translate(248 176.5)" opacity="1"><path id="SvgjsPath1103" d="M6.666666666666667 0L52.333333333333336 0C61.22222222222222 0 61.22222222222222 20 52.333333333333336 20L6.666666666666667 20C-2.2222222222222223 20 -2.2222222222222223 0 6.666666666666667 0Z " stroke-dasharray="none" stroke="#323232" stroke-width="2" fill="#ffffff" opacity="1"></path><g id="SvgjsG1104" transform="matrix(1 0 0 1 10 1.875)" fill="#ffffff"><text id="SvgjsText1105" font-family="微软雅黑,黑体,Arial,SimSun" fill="#000000" font-size="13" font-weight="normal" font-style="normal" text-anchor="middle" text-decoration="blink" x="19.5" y="14">PRNG</text></g></g><g id="SvgjsG1106" transform="translate(399 267)" opacity="1"><path id="SvgjsPath1107" d="M6.666666666666667 0L52.333333333333336 0C61.22222222222222 0 61.22222222222222 20 52.333333333333336 20L6.666666666666667 20C-2.2222222222222223 20 -2.2222222222222223 0 6.666666666666667 0Z " stroke-dasharray="none" stroke="#323232" stroke-width="2" fill="#ffffff" opacity="1"></path><g id="SvgjsG1108" transform="matrix(1 0 0 1 10 1.875)" fill="#ffffff"><text id="SvgjsText1109" font-family="微软雅黑,黑体,Arial,SimSun" fill="#000000" font-size="13" font-weight="normal" font-style="normal" text-anchor="middle" text-decoration="blink" x="19.5" y="14">PRNG</text></g></g><g id="SvgjsG1110" transform="translate(559 267)" opacity="1"><path id="SvgjsPath1111" d="M6.666666666666667 0L52.333333333333336 0C61.22222222222222 0 61.22222222222222 20 52.333333333333336 20L6.666666666666667 20C-2.2222222222222223 20 -2.2222222222222223 0 6.666666666666667 0Z " stroke-dasharray="none" stroke="#323232" stroke-width="2" fill="#ffffff" opacity="1"></path><g id="SvgjsG1112" transform="matrix(1 0 0 1 10 1.875)" fill="#ffffff"><text id="SvgjsText1113" font-family="微软雅黑,黑体,Arial,SimSun" fill="#000000" font-size="13" font-weight="normal" font-style="normal" text-anchor="middle" text-decoration="blink" x="19.5" y="14">PRNG</text></g></g><g id="SvgjsG1114" transform="translate(212 469.5)" opacity="1"><path id="SvgjsPath1115" d="M6.666666666666667 0L52.333333333333336 0C61.22222222222222 0 61.22222222222222 20 52.333333333333336 20L6.666666666666667 20C-2.2222222222222223 20 -2.2222222222222223 0 6.666666666666667 0Z " stroke-dasharray="none" stroke="#323232" stroke-width="2" fill="#ffffff" opacity="1"></path><g id="SvgjsG1116" transform="matrix(1 0 0 1 10 1.875)" fill="#ffffff"><text id="SvgjsText1117" font-family="微软雅黑,黑体,Arial,SimSun" fill="#000000" font-size="13" font-weight="normal" font-style="normal" text-anchor="middle" text-decoration="blink" x="19.5" y="14">PRNG</text></g></g><g id="SvgjsG1118" transform="translate(271 463.5)" opacity="1"><path id="SvgjsPath1119" d="M0 0L131 0L131 36.5L0 36.5Z " stroke-dasharray="none" stroke-width="0" stroke="#323232" fill="none" opacity="1"></path><g id="SvgjsG1120" transform="matrix(1 0 0 1 0 10.125)" fill="#ffffff"><text id="SvgjsText1121" font-family="微软雅黑,黑体,Arial,SimSun" fill="#000000" font-size="13" font-weight="normal" font-style="normal" text-anchor="middle" text-decoration="blink" x="65.5" y="14">表示伪随机数生成器</text></g></g></g></g></svg>