<svg id="drawing" xmlns="http://www.w3.org/2000/svg" version="1.1" xmlns:xlink="http://www.w3.org/1999/xlink" xmlns:svgjs="http://svgjs.com/svgjs" width="876" height="729.0056762695312" viewBox="61.366485595703125 59 876 729.0056762695312"><defs id="SvgjsDefs1001"><marker id="SvgjsMarker1038" markerWidth="16.23606797749979" markerHeight="10.550836550532098" refX="-1" refY="3.8990363547948754" viewBox="-1 -1.3763819204711738 16.23606797749979 10.550836550532098" orient="auto" markerUnits="userSpaceOnUse"><path id="SvgjsPath1039" d="M12 3.8990363547948754L0 7.798072709589751V0Z " stroke="#323232" stroke-width="2" fill="#323232" transform="matrix(1,0,0,1,0,0)"></path></marker><marker id="SvgjsMarker1050" markerWidth="16.23606797749979" markerHeight="10.550836550532098" refX="15.23606797749979" refY="3.8990363547948754" viewBox="-1 -1.3763819204711738 16.23606797749979 10.550836550532098" orient="auto" markerUnits="userSpaceOnUse"><path id="SvgjsPath1051" d="M12 3.8990363547948754L0 7.798072709589751V0Z " stroke="#323232" stroke-width="2" fill="#323232" transform="matrix(-1,1.2246467991473532e-16,-1.2246467991473532e-16,-1,14.23606797749979,7.79807270958975)"></path></marker><marker id="SvgjsMarker1074" markerWidth="16.23606797749979" markerHeight="10.550836550532098" refX="15.23606797749979" refY="3.8990363547948754" viewBox="-1 -1.3763819204711738 16.23606797749979 10.550836550532098" orient="auto" markerUnits="userSpaceOnUse"><path id="SvgjsPath1075" d="M12 3.8990363547948754L0 7.798072709589751V0Z " stroke="#323232" stroke-width="2" fill="#323232" transform="matrix(-1,1.2246467991473532e-16,-1.2246467991473532e-16,-1,14.23606797749979,7.79807270958975)"></path></marker><marker id="SvgjsMarker1076" markerWidth="16.23606797749979" markerHeight="10.550836550532098" refX="-1" refY="3.8990363547948754" viewBox="-1 -1.3763819204711738 16.23606797749979 10.550836550532098" orient="auto" markerUnits="userSpaceOnUse"><path id="SvgjsPath1077" d="M12 3.8990363547948754L0 7.798072709589751V0Z " stroke="#323232" stroke-width="2" fill="#323232" transform="matrix(1,0,0,1,0,0)"></path></marker><marker id="SvgjsMarker1104" markerWidth="16.23606797749979" markerHeight="10.550836550532098" refX="-1" refY="3.8990363547948754" viewBox="-1 -1.3763819204711738 16.23606797749979 10.550836550532098" orient="auto" markerUnits="userSpaceOnUse"><path id="SvgjsPath1105" d="M12 3.8990363547948754L0 7.798072709589751V0Z " stroke="#323232" stroke-width="2" fill="#323232" transform="matrix(1,0,0,1,0,0)"></path></marker><marker id="SvgjsMarker1111" markerWidth="16.23606797749979" markerHeight="10.550836550532098" refX="-1" refY="3.8990363547948754" viewBox="-1 -1.3763819204711738 16.23606797749979 10.550836550532098" orient="auto" markerUnits="userSpaceOnUse"><path id="SvgjsPath1112" d="M12 3.8990363547948754L0 7.798072709589751V0Z " stroke="#323232" stroke-width="2" fill="#323232" transform="matrix(1,0,0,1,0,0)"></path></marker><marker id="SvgjsMarker1123" markerWidth="16.23606797749979" markerHeight="10.550836550532098" refX="-1" refY="3.8990363547948754" viewBox="-1 -1.3763819204711738 16.23606797749979 10.550836550532098" orient="auto" markerUnits="userSpaceOnUse"><path id="SvgjsPath1124" d="M12 3.8990363547948754L0 7.798072709589751V0Z " stroke="#323232" stroke-width="2" fill="#323232" transform="matrix(1,0,0,1,0,0)"></path></marker><marker id="SvgjsMarker1142" markerWidth="16.23606797749979" markerHeight="10.550836550532098" refX="-1" refY="3.8990363547948754" viewBox="-1 -1.3763819204711738 16.23606797749979 10.550836550532098" orient="auto" markerUnits="userSpaceOnUse"><path id="SvgjsPath1143" d="M12 3.8990363547948754L0 7.798072709589751V0Z " stroke="#323232" stroke-width="2" fill="#323232" transform="matrix(1,0,0,1,0,0)"></path></marker><marker id="SvgjsMarker1149" markerWidth="16.23606797749979" markerHeight="10.550836550532098" refX="-1" refY="3.8990363547948754" viewBox="-1 -1.3763819204711738 16.23606797749979 10.550836550532098" orient="auto" markerUnits="userSpaceOnUse"><path id="SvgjsPath1150" d="M12 3.8990363547948754L0 7.798072709589751V0Z " stroke="#323232" stroke-width="2" fill="#323232" transform="matrix(1,0,0,1,0,0)"></path></marker><marker id="SvgjsMarker1161" markerWidth="16.23606797749979" markerHeight="10.550836550532098" refX="-1" refY="3.8990363547948754" viewBox="-1 -1.3763819204711738 16.23606797749979 10.550836550532098" orient="auto" markerUnits="userSpaceOnUse"><path id="SvgjsPath1162" d="M12 3.8990363547948754L0 7.798072709589751V0Z " stroke="#323232" stroke-width="2" fill="#323232" transform="matrix(1,0,0,1,0,0)"></path></marker></defs><g id="SvgjsG1007"><path id="SvgjsPath1008" d="M61.366485595703125 59H937.3664855957031V788.0056762695312H61.366485595703125V59Z " fill-opacity="1" fill="#ffffff"></path><g id="SvgjsG1009"><g id="SvgjsG1010" transform="translate(277 79)" opacity="1"><path id="SvgjsPath1011" d="M0 0L100 0L100 70L0 70Z " stroke-dasharray="none" stroke="#323232" stroke-width="2" fill="#ffffff" opacity="1"></path><g id="SvgjsG1012" transform="matrix(1 0 0 1 10 18.75)" fill="#ffffff"><text id="SvgjsText1013" font-family="微软雅黑,黑体,Arial,SimSun" fill="#000000" font-size="13" font-weight="normal" font-style="normal" text-anchor="middle" text-decoration="blink" x="40" y="14">消息的发送者</text><text id="SvgjsText1014" font-family="微软雅黑,黑体,Arial,SimSun" fill="#000000" font-size="13" font-weight="normal" font-style="normal" text-anchor="middle" text-decoration="blink" x="40" y="30.25">Alice</text></g></g><g id="SvgjsG1015" transform="translate(586 79)" opacity="1"><path id="SvgjsPath1016" d="M0 0L100 0L100 70L0 70Z " stroke-dasharray="none" stroke="#323232" stroke-width="2" fill="#ffffff" opacity="1"></path><g id="SvgjsG1017" transform="matrix(1 0 0 1 10 18.75)" fill="#ffffff"><text id="SvgjsText1018" font-family="微软雅黑,黑体,Arial,SimSun" fill="#000000" font-size="13" font-weight="normal" font-style="normal" text-anchor="middle" text-decoration="blink" x="40" y="14">消息的接受者</text><text id="SvgjsText1019" font-family="微软雅黑,黑体,Arial,SimSun" fill="#000000" font-size="13" font-weight="normal" font-style="normal" text-anchor="middle" text-decoration="blink" x="40" y="30.25">Bob</text></g></g><g id="SvgjsG1020" transform="translate(317 289.64205169677734)" opacity="1"><path id="SvgjsPath1021" d="M0 0L20 0L20 229.35794830322266L0 229.35794830322266Z " stroke-dasharray="none" stroke="#323232" stroke-width="2" fill="#ffffff" opacity="1"></path></g><g id="SvgjsG1022"><path id="SvgjsPath1023" d="M327 149L327 289.64205169677734 " stroke-dasharray="2 3" stroke="#323232" stroke-width="2" fill="none"></path><g id="SvgjsG1024" transform="matrix(1 0 0 1 327 211.19602584838867)"><path id="SvgjsPath1025" d="M0 0H0V0H0V0Z " fill="#ffffff" transform="translate(0 0)"></path><text id="SvgjsText1026" font-family="Microsoft Yahei,SimSun" fill="#000000" font-size="13" font-weight="normal" font-style="normal" text-anchor="middle" text-decoration="blink" x="0" y="0"></text></g></g><g id="SvgjsG1027" transform="translate(626 519)" opacity="1"><path id="SvgjsPath1028" d="M0 0L20 0L20 249.00567626953125L0 249.00567626953125Z " stroke-dasharray="none" stroke="#323232" stroke-width="2" fill="#ffffff" opacity="1"></path></g><g id="SvgjsG1029"><path id="SvgjsPath1030" d="M637 153L637 257 " stroke-dasharray="2 3" stroke="#323232" stroke-width="2" fill="none"></path><g id="SvgjsG1031" transform="matrix(1 0 0 1 637 196.875)"><path id="SvgjsPath1032" d="M0 0H0V0H0V0Z " fill="#ffffff" transform="translate(0 0)"></path><text id="SvgjsText1033" font-family="Microsoft Yahei,SimSun" fill="#000000" font-size="13" font-weight="normal" font-style="normal" text-anchor="middle" text-decoration="blink" x="0" y="0"></text></g></g><g id="SvgjsG1034" transform="translate(626 188.64205169677734)" opacity="1"><path id="SvgjsPath1035" d="M0 0L20 0L20 101L0 101Z " stroke-dasharray="none" stroke="#323232" stroke-width="2" fill="#ffffff" opacity="1"></path></g><g id="SvgjsG1036"><path id="SvgjsPath1037" d="M625.0028533935547 289.64205169677734L352.17673462913933 289.9371968703417 " stroke-dasharray="none" stroke="#323232" stroke-width="2" fill="none" marker-end="url(#SvgjsMarker1038)"></path><g id="SvgjsG1040" transform="matrix(1 0 0 1 761.4159127757623 281.66462428355953)"><path id="SvgjsPath1041" d="M0 0H0V0H0V0Z " fill="#ffffff" transform="translate(0 0)"></path><text id="SvgjsText1042" font-family="Microsoft Yahei,SimSun" fill="#000000" font-size="13" font-weight="normal" font-style="normal" text-anchor="middle" text-decoration="blink" x="0" y="0"></text></g></g><g id="SvgjsG1043"><path id="SvgjsPath1044" d="M636 289.64205169677734L636 519 " stroke-dasharray="2 3" stroke="#323232" stroke-width="2" fill="none"></path><g id="SvgjsG1045" transform="matrix(1 0 0 1 636 396.1960258483887)"><path id="SvgjsPath1046" d="M0 0H0V0H0V0Z " fill="#ffffff" transform="translate(0 0)"></path><text id="SvgjsText1047" font-family="Microsoft Yahei,SimSun" fill="#000000" font-size="13" font-weight="normal" font-style="normal" text-anchor="middle" text-decoration="blink" x="0" y="0"></text></g></g><g id="SvgjsG1048"><path id="SvgjsPath1049" d="M620.7639320225002 519L327 519 " stroke-dasharray="none" stroke="#323232" stroke-width="2" fill="none" marker-start="url(#SvgjsMarker1050)"></path><g id="SvgjsG1052" transform="matrix(1 0 0 1 767.6458980337502 510.875)"><path id="SvgjsPath1053" d="M0 0H0V0H0V0Z " fill="#ffffff" transform="translate(0 0)"></path><text id="SvgjsText1054" font-family="Microsoft Yahei,SimSun" fill="#000000" font-size="13" font-weight="normal" font-style="normal" text-anchor="middle" text-decoration="blink" x="0" y="0"></text></g></g><g id="SvgjsG1055"><path id="SvgjsPath1056" d="M327.3664855957031 521.2784118652344L327.3664855957031 768.0056762695312 " stroke-dasharray="2 3" stroke="#323232" stroke-width="2" fill="none"></path><g id="SvgjsG1057" transform="matrix(1 0 0 1 327.3664855957031 636.5170440673828)"><path id="SvgjsPath1058" d="M0 0H0V0H0V0Z " fill="#ffffff" transform="translate(0 0)"></path><text id="SvgjsText1059" font-family="Microsoft Yahei,SimSun" fill="#000000" font-size="13" font-weight="normal" font-style="normal" text-anchor="middle" text-decoration="blink" x="0" y="0"></text></g></g><g id="SvgjsG1060" transform="translate(430.3664855957031 289.64205169677734)" opacity="1"><path id="SvgjsPath1061" d="M0 0L106 0L106 41L0 41Z " stroke-dasharray="none" stroke="#323232" stroke-width="2" fill="#ffffff" opacity="1"></path><g id="SvgjsG1062" transform="matrix(1 0 0 1 10 12.375)" fill="#ffffff"><text id="SvgjsText1063" font-family="微软雅黑,黑体,Arial,SimSun" fill="#000000" font-size="13" font-weight="normal" font-style="normal" text-anchor="middle" text-decoration="blink" x="43" y="14">Bob的公钥</text></g></g><g id="SvgjsG1064" transform="translate(694.3664855957031 221.5511360168457)" opacity="1"><path id="SvgjsPath1065" d="M0 0L87 0L87 30.09091567993164L0 30.09091567993164Z " stroke-dasharray="none" stroke="#323232" stroke-width="2" fill="#ffffff" opacity="1"></path><g id="SvgjsG1066" transform="matrix(1 0 0 1 10 6.92045783996582)" fill="#ffffff"><text id="SvgjsText1067" font-family="微软雅黑,黑体,Arial,SimSun" fill="#000000" font-size="13" font-weight="normal" font-style="normal" text-anchor="middle" text-decoration="blink" x="33.5" y="14">Bob的公钥</text></g></g><g id="SvgjsG1068" transform="translate(830.3664855957031 221.5511360168457)" opacity="1"><path id="SvgjsPath1069" d="M0 0L87 0L87 30.09091567993164L0 30.09091567993164Z " stroke-dasharray="none" stroke="#323232" stroke-width="2" fill="#ffffff" opacity="1"></path><g id="SvgjsG1070" transform="matrix(1 0 0 1 10 6.92045783996582)" fill="#ffffff"><text id="SvgjsText1071" font-family="微软雅黑,黑体,Arial,SimSun" fill="#000000" font-size="13" font-weight="normal" font-style="normal" text-anchor="middle" text-decoration="blink" x="33.5" y="14">Bob的私钥</text></g></g><g id="SvgjsG1072"><path id="SvgjsPath1073" d="M796.602553573203 236.59659385681152L815.1304176182033 236.59659385681152 " stroke-dasharray="none" stroke="#323232" stroke-width="2" fill="none" marker-start="url(#SvgjsMarker1074)" marker-end="url(#SvgjsMarker1076)"></path><g id="SvgjsG1078" transform="matrix(1 0 0 1 805.8664855957031 228.47159385681152)"><path id="SvgjsPath1079" d="M0 0H0V0H0V0Z " fill="#ffffff" transform="translate(0 0)"></path><text id="SvgjsText1080" font-family="Microsoft Yahei,SimSun" fill="#000000" font-size="13" font-weight="normal" font-style="normal" text-anchor="middle" text-decoration="blink" x="0" y="0"></text></g></g><g id="SvgjsG1081" transform="translate(744.3664855957031 188.64205169677734)" opacity="1"><path id="SvgjsPath1082" d="M0 0L129 0L129 28L0 28Z " stroke-dasharray="none" stroke-width="0" stroke="#323232" fill="none" opacity="1"></path><g id="SvgjsG1083" transform="matrix(1 0 0 1 0 5.875)" fill="#ffffff"><text id="SvgjsText1084" font-family="微软雅黑,黑体,Arial,SimSun" fill="#000000" font-size="13" font-weight="normal" font-style="normal" text-anchor="middle" text-decoration="blink" x="64.5" y="14">[1]Bob生成密钥对</text></g></g><g id="SvgjsG1085" transform="translate(405.3664855957031 261.64205169677734)" opacity="1"><path id="SvgjsPath1086" d="M0 0L164 0L164 29L0 29Z " stroke-dasharray="none" stroke-width="0" stroke="#323232" fill="none" opacity="1"></path><g id="SvgjsG1087" transform="matrix(1 0 0 1 0 -1.75)" fill="#ffffff"><text id="SvgjsText1088" font-family="微软雅黑,黑体,Arial,SimSun" fill="#000000" font-size="13" font-weight="normal" font-style="normal" text-anchor="middle" text-decoration="blink" x="82" y="14">[2]Bob将将公钥发送给Alic</text><text id="SvgjsText1089" font-family="微软雅黑,黑体,Arial,SimSun" fill="#000000" font-size="13" font-weight="normal" font-style="normal" text-anchor="middle" text-decoration="blink" x="82" y="30.25">e</text></g></g><g id="SvgjsG1090" transform="translate(225.36648559570312 332.5511360168457)" opacity="1"><path id="SvgjsPath1091" d="M0 0L72 0L72 29L0 29Z " stroke-dasharray="none" stroke="#323232" stroke-width="2" fill="#ffffff" opacity="1"></path><g id="SvgjsG1092" transform="matrix(1 0 0 1 10 6.375)" fill="#ffffff"><text id="SvgjsText1093" font-family="微软雅黑,黑体,Arial,SimSun" fill="#000000" font-size="13" font-weight="normal" font-style="normal" text-anchor="middle" text-decoration="blink" x="26" y="14">消息</text></g></g><g id="SvgjsG1094" transform="translate(218.36648559570312 398.5511360168457)" opacity="1"><path id="SvgjsPath1095" d="M9.333333333333334 0L76.66666666666667 0C89.11111111111111 0 89.11111111111111 28 76.66666666666667 28L9.333333333333334 28C-3.111111111111111 28 -3.111111111111111 0 9.333333333333334 0Z " stroke-dasharray="none" stroke="#323232" stroke-width="2" fill="#ffffff" opacity="1"></path><g id="SvgjsG1096" transform="matrix(1 0 0 1 10 5.875)" fill="#ffffff"><text id="SvgjsText1097" font-family="微软雅黑,黑体,Arial,SimSun" fill="#000000" font-size="13" font-weight="normal" font-style="normal" text-anchor="middle" text-decoration="blink" x="33" y="14">加密</text></g></g><g id="SvgjsG1098" transform="translate(225.36648559570312 459.5511360168457)" opacity="1"><path id="SvgjsPath1099" d="M0 0L72 0L72 29L0 29Z " stroke-dasharray="none" stroke="#323232" stroke-width="2" fill="#ffffff" opacity="1"></path><g id="SvgjsG1100" transform="matrix(1 0 0 1 10 6.375)" fill="#ffffff"><text id="SvgjsText1101" font-family="微软雅黑,黑体,Arial,SimSun" fill="#000000" font-size="13" font-weight="normal" font-style="normal" text-anchor="middle" text-decoration="blink" x="26" y="14">密文</text></g></g><g id="SvgjsG1102"><path id="SvgjsPath1103" d="M261.3664855957031 361.5511360168457L261.3664855957031 383.31506803934593 " stroke-dasharray="none" stroke="#323232" stroke-width="2" fill="none" marker-end="url(#SvgjsMarker1104)"></path><g id="SvgjsG1106" transform="matrix(1 0 0 1 261.3664855957031 364.30810202809585)"><path id="SvgjsPath1107" d="M0 0H0V0H0V0Z " fill="#ffffff" transform="translate(0 0)"></path><text id="SvgjsText1108" font-family="Microsoft Yahei,SimSun" fill="#000000" font-size="13" font-weight="normal" font-style="normal" text-anchor="middle" text-decoration="blink" x="0" y="0"></text></g></g><g id="SvgjsG1109"><path id="SvgjsPath1110" d="M261.3664855957031 426.5511360168457L261.3664855957031 444.31506803934593 " stroke-dasharray="none" stroke="#323232" stroke-width="2" fill="none" marker-end="url(#SvgjsMarker1111)"></path><g id="SvgjsG1113" transform="matrix(1 0 0 1 261.3664855957031 427.30810202809585)"><path id="SvgjsPath1114" d="M0 0H0V0H0V0Z " fill="#ffffff" transform="translate(0 0)"></path><text id="SvgjsText1115" font-family="Microsoft Yahei,SimSun" fill="#000000" font-size="13" font-weight="normal" font-style="normal" text-anchor="middle" text-decoration="blink" x="0" y="0"></text></g></g><g id="SvgjsG1116" transform="translate(96.36648559570312 392.4147701263428)" opacity="1"><path id="SvgjsPath1117" d="M0 0L85 0L85 40.27273178100586L0 40.27273178100586Z " stroke-dasharray="none" stroke="#323232" stroke-width="2" fill="#ffffff" opacity="1"></path><g id="SvgjsG1118" transform="matrix(1 0 0 1 10 3.8863658905029297)" fill="#ffffff"><text id="SvgjsText1119" font-family="微软雅黑,黑体,Arial,SimSun" fill="#000000" font-size="13" font-weight="normal" font-style="normal" text-anchor="middle" text-decoration="blink" x="32.5" y="14">Bob的</text><text id="SvgjsText1120" font-family="微软雅黑,黑体,Arial,SimSun" fill="#000000" font-size="13" font-weight="normal" font-style="normal" text-anchor="middle" text-decoration="blink" x="32.5" y="30.25">公钥</text></g></g><g id="SvgjsG1121"><path id="SvgjsPath1122" d="M181.36648559570312 412.5511360168457L203.13041761820332 412.5511360168457 " stroke-dasharray="none" stroke="#323232" stroke-width="2" fill="none" marker-end="url(#SvgjsMarker1123)"></path><g id="SvgjsG1125" transform="matrix(1 0 0 1 192.2484516069532 404.4261360168457)"><path id="SvgjsPath1126" d="M0 0H0V0H0V0Z " fill="#ffffff" transform="translate(0 0)"></path><text id="SvgjsText1127" font-family="Microsoft Yahei,SimSun" fill="#000000" font-size="13" font-weight="normal" font-style="normal" text-anchor="middle" text-decoration="blink" x="0" y="0"></text></g></g><g id="SvgjsG1128" transform="translate(673.3664855957031 573.5511360168457)" opacity="1"><path id="SvgjsPath1129" d="M0 0L72 0L72 29L0 29Z " stroke-dasharray="none" stroke="#323232" stroke-width="2" fill="#ffffff" opacity="1"></path><g id="SvgjsG1130" transform="matrix(1 0 0 1 10 6.375)" fill="#ffffff"><text id="SvgjsText1131" font-family="微软雅黑,黑体,Arial,SimSun" fill="#000000" font-size="13" font-weight="normal" font-style="normal" text-anchor="middle" text-decoration="blink" x="26" y="14">密文</text></g></g><g id="SvgjsG1132" transform="translate(666.3664855957031 639.5511360168457)" opacity="1"><path id="SvgjsPath1133" d="M9.333333333333334 0L76.66666666666667 0C89.11111111111111 0 89.11111111111111 28 76.66666666666667 28L9.333333333333334 28C-3.111111111111111 28 -3.111111111111111 0 9.333333333333334 0Z " stroke-dasharray="none" stroke="#323232" stroke-width="2" fill="#ffffff" opacity="1"></path><g id="SvgjsG1134" transform="matrix(1 0 0 1 10 5.875)" fill="#ffffff"><text id="SvgjsText1135" font-family="微软雅黑,黑体,Arial,SimSun" fill="#000000" font-size="13" font-weight="normal" font-style="normal" text-anchor="middle" text-decoration="blink" x="33" y="14">解密</text></g></g><g id="SvgjsG1136" transform="translate(675.3664855957031 699.5511360168457)" opacity="1"><path id="SvgjsPath1137" d="M0 0L72 0L72 29L0 29Z " stroke-dasharray="none" stroke="#323232" stroke-width="2" fill="#ffffff" opacity="1"></path><g id="SvgjsG1138" transform="matrix(1 0 0 1 10 6.375)" fill="#ffffff"><text id="SvgjsText1139" font-family="微软雅黑,黑体,Arial,SimSun" fill="#000000" font-size="13" font-weight="normal" font-style="normal" text-anchor="middle" text-decoration="blink" x="26" y="14">密文</text></g></g><g id="SvgjsG1140"><path id="SvgjsPath1141" d="M709.3664855957031 602.5511360168457L709.3664855957031 624.3150680393459 " stroke-dasharray="none" stroke="#323232" stroke-width="2" fill="none" marker-end="url(#SvgjsMarker1142)"></path><g id="SvgjsG1144" transform="matrix(1 0 0 1 709.3664855957031 605.3081020280958)"><path id="SvgjsPath1145" d="M0 0H0V0H0V0Z " fill="#ffffff" transform="translate(0 0)"></path><text id="SvgjsText1146" font-family="Microsoft Yahei,SimSun" fill="#000000" font-size="13" font-weight="normal" font-style="normal" text-anchor="middle" text-decoration="blink" x="0" y="0"></text></g></g><g id="SvgjsG1147"><path id="SvgjsPath1148" d="M709.3664855957031 667.5511360168457L710.4160857875229 684.3447390859615 " stroke-dasharray="none" stroke="#323232" stroke-width="2" fill="none" marker-end="url(#SvgjsMarker1149)"></path><g id="SvgjsG1151" transform="matrix(1 0 0 1 709.891285691613 667.8229375514036)"><path id="SvgjsPath1152" d="M0 0H0V0H0V0Z " fill="#ffffff" transform="translate(0 0)"></path><text id="SvgjsText1153" font-family="Microsoft Yahei,SimSun" fill="#000000" font-size="13" font-weight="normal" font-style="normal" text-anchor="middle" text-decoration="blink" x="0" y="0"></text></g></g><g id="SvgjsG1154" transform="translate(800.3664855957031 634.4602222442627)" opacity="1"><path id="SvgjsPath1155" d="M0 0L85 0L85 38.181827545166016L0 38.181827545166016Z " stroke-dasharray="none" stroke="#323232" stroke-width="2" fill="#ffffff" opacity="1"></path><g id="SvgjsG1156" transform="matrix(1 0 0 1 10 2.840913772583008)" fill="#ffffff"><text id="SvgjsText1157" font-family="微软雅黑,黑体,Arial,SimSun" fill="#000000" font-size="13" font-weight="normal" font-style="normal" text-anchor="middle" text-decoration="blink" x="32.5" y="14">Bob的</text><text id="SvgjsText1158" font-family="微软雅黑,黑体,Arial,SimSun" fill="#000000" font-size="13" font-weight="normal" font-style="normal" text-anchor="middle" text-decoration="blink" x="32.5" y="30.25">私钥</text></g></g><g id="SvgjsG1159"><path id="SvgjsPath1160" d="M800.3664855957031 653.5511360168457L767.602553573203 653.5511360168457 " stroke-dasharray="none" stroke="#323232" stroke-width="2" fill="none" marker-end="url(#SvgjsMarker1161)"></path><g id="SvgjsG1163" transform="matrix(1 0 0 1 816.7484516069533 645.4261360168457)"><path id="SvgjsPath1164" d="M0 0H0V0H0V0Z " fill="#ffffff" transform="translate(0 0)"></path><text id="SvgjsText1165" font-family="Microsoft Yahei,SimSun" fill="#000000" font-size="13" font-weight="normal" font-style="normal" text-anchor="middle" text-decoration="blink" x="0" y="0"></text></g></g><g id="SvgjsG1166" transform="translate(642.3664855957031 539.0965881347656)" opacity="1"><path id="SvgjsPath1167" d="M0 0L212 0L212 23L0 23Z " stroke-dasharray="none" stroke-width="0" stroke="#323232" fill="none" opacity="1"></path><g id="SvgjsG1168" transform="matrix(1 0 0 1 0 3.375)" fill="#ffffff"><text id="SvgjsText1169" font-family="微软雅黑,黑体,Arial,SimSun" fill="#000000" font-size="13" font-weight="normal" font-style="normal" text-anchor="middle" text-decoration="blink" x="106" y="14">[5]Bob用私钥对密文进行解密</text></g></g><g id="SvgjsG1170" transform="translate(81.36648559570312 322.7329635620117)" opacity="1"><path id="SvgjsPath1171" d="M0 0L127 0L127 72.54544448852539L0 72.54544448852539Z " stroke-dasharray="none" stroke-width="0" stroke="#323232" fill="none" opacity="1"></path><g id="SvgjsG1172" transform="matrix(1 0 0 1 0 11.897722244262695)" fill="#ffffff"><text id="SvgjsText1173" font-family="微软雅黑,黑体,Arial,SimSun" fill="#000000" font-size="13" font-weight="normal" font-style="normal" text-anchor="middle" text-decoration="blink" x="63.5" y="14">[3]Alice用Bob的公钥</text><text id="SvgjsText1174" font-family="微软雅黑,黑体,Arial,SimSun" fill="#000000" font-size="13" font-weight="normal" font-style="normal" text-anchor="middle" text-decoration="blink" x="63.5" y="30.25">对消息</text><text id="SvgjsText1175" font-family="微软雅黑,黑体,Arial,SimSun" fill="#000000" font-size="13" font-weight="normal" font-style="normal" text-anchor="middle" text-decoration="blink" x="63.5" y="46.5">进行加密</text></g></g><g id="SvgjsG1176" transform="translate(410.8664855957031 493)" opacity="1"><path id="SvgjsPath1177" d="M0 0L153 0L153 26L0 26Z " stroke-dasharray="none" stroke-width="0" stroke="#323232" fill="none" opacity="1"></path><g id="SvgjsG1178" transform="matrix(1 0 0 1 0 4.875)" fill="#ffffff"><text id="SvgjsText1179" font-family="微软雅黑,黑体,Arial,SimSun" fill="#000000" font-size="13" font-weight="normal" font-style="normal" text-anchor="middle" text-decoration="blink" x="76.5" y="14">[4]Alice将密文发送给Bob</text></g></g><g id="SvgjsG1180" transform="translate(434.3664855957031 519)" opacity="1"><path id="SvgjsPath1181" d="M0 0L106 0L106 41L0 41Z " stroke-dasharray="none" stroke="#323232" stroke-width="2" fill="#ffffff" opacity="1"></path><g id="SvgjsG1182" transform="matrix(1 0 0 1 10 12.375)" fill="#ffffff"><text id="SvgjsText1183" font-family="微软雅黑,黑体,Arial,SimSun" fill="#000000" font-size="13" font-weight="normal" font-style="normal" text-anchor="middle" text-decoration="blink" x="43" y="14">密文</text></g></g></g></g></svg>